<svg xmlns="http://www.w3.org/2000/svg" xmlns:xlink="http://www.w3.org/1999/xlink"> 

    <symbol id="email" viewBox="0 0 537.18 537.18" >
        <g>
		<path d="M266.7,287.513L514.92,86.927c-7.14-5.046-15.96-7.569-25.62-7.569H44.1c-9.66,0-18.48,2.523-25.62,7.569L266.7,287.513z" fill="#FFFFFF"/>
		<path d="M317.94,267.749l210,169.468c5.46-7.569,9.24-16.821,9.24-26.493V124.773c0-10.092-4.2-18.923-9.24-26.493L317.94,267.749    z" fill="#FFFFFF"/>
		<path d="M7.56,98.281C2.1,105.85,0,115.102,0,124.773v285.951c0,10.092,2.1,18.923,7.56,26.493l209.16-169.468L7.56,98.281z" fill="#FFFFFF"/>
		<path d="M304.5,278.682l-32.34,26.493c-1.68,1.262-3.36,1.682-5.46,1.682s-3.78-0.421-5.46-1.682l-32.34-26.493L18.48,449.412    c7.14,5.046,15.96,8.41,25.62,8.41h445.2c9.66,0,18.48-3.364,25.62-8.41L304.5,278.682z" fill="#FFFFFF"/>
	    </g>
    </symbol>
    <symbol id="telephone" viewBox="0 0 401.998 401.998" >
        <g>
            <path d="M401.129,311.475c-1.137-3.426-8.371-8.473-21.697-15.129c-3.61-2.098-8.754-4.949-15.41-8.566   c-6.662-3.617-12.709-6.95-18.13-9.996c-5.432-3.045-10.521-5.995-15.276-8.846c-0.76-0.571-3.139-2.234-7.136-5   c-4.001-2.758-7.375-4.805-10.14-6.14c-2.759-1.327-5.473-1.995-8.138-1.995c-3.806,0-8.56,2.714-14.268,8.135   c-5.708,5.428-10.944,11.324-15.7,17.706c-4.757,6.379-9.802,12.275-15.126,17.7c-5.332,5.427-9.713,8.138-13.135,8.138   c-1.718,0-3.86-0.479-6.427-1.424c-2.566-0.951-4.518-1.766-5.858-2.423c-1.328-0.671-3.607-1.999-6.845-4.004   c-3.244-1.999-5.048-3.094-5.428-3.285c-26.075-14.469-48.438-31.029-67.093-49.676c-18.649-18.658-35.211-41.019-49.676-67.097   c-0.19-0.381-1.287-2.19-3.284-5.424c-2-3.237-3.333-5.518-3.999-6.854c-0.666-1.331-1.475-3.283-2.425-5.852   s-1.427-4.709-1.427-6.424c0-3.424,2.713-7.804,8.138-13.134c5.424-5.327,11.326-10.373,17.7-15.128   c6.379-4.755,12.275-9.991,17.701-15.699c5.424-5.711,8.136-10.467,8.136-14.273c0-2.663-0.666-5.378-1.997-8.137   c-1.332-2.765-3.378-6.139-6.139-10.138c-2.762-3.997-4.427-6.374-4.999-7.139c-2.852-4.755-5.799-9.846-8.848-15.271   c-3.049-5.424-6.377-11.47-9.995-18.131c-3.615-6.658-6.468-11.799-8.564-15.415C98.986,9.233,93.943,1.997,90.516,0.859   C89.183,0.288,87.183,0,84.521,0c-5.142,0-11.85,0.95-20.129,2.856c-8.282,1.903-14.799,3.899-19.558,5.996   c-9.517,3.995-19.604,15.605-30.264,34.826C4.863,61.566,0.01,79.271,0.01,96.78c0,5.135,0.333,10.131,0.999,14.989   c0.666,4.853,1.856,10.326,3.571,16.418c1.712,6.09,3.093,10.614,4.137,13.56c1.045,2.948,2.996,8.229,5.852,15.845   c2.852,7.614,4.567,12.275,5.138,13.988c6.661,18.654,14.56,35.307,23.695,49.964c15.03,24.362,35.541,49.539,61.521,75.521   c25.981,25.98,51.153,46.49,75.517,61.526c14.655,9.134,31.314,17.032,49.965,23.698c1.714,0.568,6.375,2.279,13.986,5.141   c7.614,2.854,12.897,4.805,15.845,5.852c2.949,1.048,7.474,2.43,13.559,4.145c6.098,1.715,11.566,2.905,16.419,3.576   c4.856,0.657,9.853,0.996,14.989,0.996c17.508,0,35.214-4.856,53.105-14.562c19.219-10.656,30.826-20.745,34.823-30.269   c2.102-4.754,4.093-11.273,5.996-19.555c1.909-8.278,2.857-14.985,2.857-20.126C401.99,314.814,401.703,312.819,401.129,311.475z" fill="#FFFFFF"/>
        </g>
    </symbol>  
    <symbol id="search" viewBox="0 0 512.005 512.005" >
        <g>
            <path d="M505.749,475.587l-145.6-145.6c28.203-34.837,45.184-79.104,45.184-127.317c0-111.744-90.923-202.667-202.667-202.667
                S0,90.925,0,202.669s90.923,202.667,202.667,202.667c48.213,0,92.48-16.981,127.317-45.184l145.6,145.6
                c4.16,4.16,9.621,6.251,15.083,6.251s10.923-2.091,15.083-6.251C514.091,497.411,514.091,483.928,505.749,475.587z
                M202.667,362.669c-88.235,0-160-71.765-160-160s71.765-160,160-160s160,71.765,160,160S290.901,362.669,202.667,362.669z"/>
        </g>
    </sumbol>



    <symbol id="basket" viewBox="0 0 459.529 459.529" >
        <g>
            <g>
                <path d="M17,55.231h48.733l69.417,251.033c1.983,7.367,8.783,12.467,16.433,12.467h213.35c6.8,0,12.75-3.967,15.583-10.2    l77.633-178.5c2.267-5.383,1.7-11.333-1.417-16.15c-3.117-4.817-8.5-7.65-14.167-7.65H206.833c-9.35,0-17,7.65-17,17    s7.65,17,17,17H416.5l-62.9,144.5H164.333L94.917,33.698c-1.983-7.367-8.783-12.467-16.433-12.467H17c-9.35,0-17,7.65-17,17    S7.65,55.231,17,55.231z"/>
                <path d="M135.433,438.298c21.25,0,38.533-17.283,38.533-38.533s-17.283-38.533-38.533-38.533S96.9,378.514,96.9,399.764    S114.183,438.298,135.433,438.298z"/>
                <path d="M376.267,438.298c0.85,0,1.983,0,2.833,0c10.2-0.85,19.55-5.383,26.35-13.317c6.8-7.65,9.917-17.567,9.35-28.05    c-1.417-20.967-19.833-37.117-41.083-35.7c-21.25,1.417-37.117,20.117-35.7,41.083    C339.433,422.431,356.15,438.298,376.267,438.298z"/>
            </g>
        </g>
    </sumbol>
</svg>